<svg width="22" height="22" viewBox="0 0 22 22" fill="none" xmlns="http://www.w3.org/2000/svg">
<path d="M9.7516 15.8604V17.8904C9.7516 19.6104 8.15158 21.0004 6.18158 21.0004C4.21158 21.0004 2.60156 19.6104 2.60156 17.8904V15.8604C2.60156 17.5804 4.20158 18.8004 6.18158 18.8004C8.15158 18.8004 9.7516 17.5704 9.7516 15.8604Z" stroke="#9197B3" stroke-width="1.5" stroke-linecap="round" stroke-linejoin="round"/>
<path d="M9.7501 13.11C9.7501 13.61 9.6101 14.07 9.3701 14.47C8.78006 15.44 7.57004 16.05 6.17004 16.05C4.77004 16.05 3.56003 15.43 2.97003 14.47C2.73003 14.07 2.59009 13.61 2.59009 13.11C2.59009 12.25 2.99007 11.48 3.63007 10.92C4.28007 10.35 5.17003 10.01 6.16003 10.01C7.15003 10.01 8.04006 10.36 8.69006 10.92C9.3501 11.47 9.7501 12.25 9.7501 13.11Z" stroke="#9197B3" stroke-width="1.5" stroke-linecap="round" stroke-linejoin="round"/>
<path d="M9.7516 13.11V15.86C9.7516 17.58 8.15158 18.8 6.18158 18.8C4.21158 18.8 2.60156 17.57 2.60156 15.86V13.11C2.60156 11.39 4.20158 10 6.18158 10C7.17158 10 8.06161 10.35 8.71161 10.91C9.3516 11.47 9.7516 12.25 9.7516 13.11Z" stroke="#9197B3" stroke-width="1.5" stroke-linecap="round" stroke-linejoin="round"/>
<path d="M21 9.9699V12.03C21 12.58 20.56 13.0299 20 13.0499H18.0399C16.9599 13.0499 15.97 12.2599 15.88 11.1799C15.82 10.5499 16.0599 9.9599 16.4799 9.5499C16.8499 9.1699 17.36 8.94995 17.92 8.94995H20C20.56 8.96995 21 9.4199 21 9.9699Z" stroke="#9197B3" stroke-width="1.5" stroke-linecap="round" stroke-linejoin="round"/>
<path d="M1 9.5V7.5C1 4.78 2.64 2.88 5.19 2.56C5.45 2.52 5.72 2.5 6 2.5H15C15.26 2.5 15.51 2.50999 15.75 2.54999C18.33 2.84999 20 4.76 20 7.5V8.95001H17.92C17.36 8.95001 16.85 9.17 16.48 9.55C16.06 9.96 15.82 10.55 15.88 11.18C15.97 12.26 16.96 13.05 18.04 13.05H20V14.5C20 17.5 18 19.5 15 19.5H12.5" stroke="#9197B3" stroke-width="1.5" stroke-linecap="round" stroke-linejoin="round"/>
</svg>
